<svg width="22" height="12" viewBox="0 0 22 12" fill="none" xmlns="http://www.w3.org/2000/svg">
<path id="Vector" d="M0.738707 10.7387L10.7387 0.738707C10.8793 0.598256 11.07 0.519367 11.2687 0.519367C11.4675 0.519367 11.6581 0.598256 11.7987 0.738707L21.7987 10.7387C21.9312 10.8809 22.0033 11.0689 21.9999 11.2632C21.9965 11.4575 21.9177 11.6429 21.7803 11.7803C21.6429 11.9177 21.4575 11.9965 21.2632 11.9999C21.0689 12.0033 20.8809 11.9312 20.7387 11.7987L11.2687 2.32996L1.79871 11.7987C1.65653 11.9312 1.46849 12.0033 1.27419 11.9999C1.07988 11.9965 0.894499 11.9177 0.757086 11.7803C0.619673 11.6429 0.54096 11.4575 0.537533 11.2632C0.534105 11.0689 0.606226 10.8809 0.738707 10.7387Z" fill="white"/>
</svg>
