<svg width="24" height="24" viewBox="0 0 16 17" fill="none" xmlns="http://www.w3.org/2000/svg">
            <path d="M13.875 9.5V13.5C13.875 13.5995 13.8355 13.6948 13.7652 13.7652C13.6948 13.8355 13.5995 13.875 13.5 13.875H2.5C2.40054 13.875 2.30516 13.8355 2.23483 13.7652C2.16451 13.6948 2.125 13.5995 2.125 13.5V9.5C2.125 9.40054 2.16451 9.30516 2.23483 9.23483C2.30516 9.16451 2.40054 9.125 2.5 9.125C2.59946 9.125 2.69484 9.16451 2.76517 9.23483C2.83549 9.30516 2.875 9.40054 2.875 9.5V13.125H13.125V9.5C13.125 9.40054 13.1645 9.30516 13.2348 9.23483C13.3052 9.16451 13.4005 9.125 13.5 9.125C13.5995 9.125 13.6948 9.16451 13.7652 9.23483C13.8355 9.30516 13.875 9.40054 13.875 9.5ZM7.735 9.765C7.80531 9.83523 7.90062 9.87467 8 9.87467C8.09938 9.87467 8.19469 9.83523 8.265 9.765L10.765 7.265C10.8312 7.19391 10.8673 7.09989 10.8656 7.00274C10.8639 6.90559 10.8245 6.8129 10.7558 6.74419C10.6871 6.67548 10.5944 6.63613 10.4973 6.63441C10.4001 6.6327 10.3061 6.66876 10.235 6.735L8.375 8.59437V2.5C8.375 2.40054 8.33549 2.30516 8.26517 2.23483C8.19484 2.16451 8.09946 2.125 8 2.125C7.90054 2.125 7.80516 2.16451 7.73484 2.23483C7.66451 2.30516 7.625 2.40054 7.625 2.5V8.59437L5.765 6.735C5.69391 6.66876 5.59989 6.6327 5.50274 6.63441C5.40559 6.63613 5.3129 6.67548 5.24419 6.74419C5.17548 6.8129 5.13613 6.90559 5.13441 7.00274C5.1327 7.09989 5.16876 7.19391 5.235 7.265L7.735 9.765Z" fill="currentColor"/>
          </svg>