
<svg width="28" height="28" viewBox="0 0 28 28" fill="none" xmlns="http://www.w3.org/2000/svg">
<path d="M27.6812 6.83636C27.5946 6.56617 27.4294 6.32792 27.2068 6.15203C26.9842 5.97615 26.7142 5.8706 26.4312 5.84886L21.6612 5.47386L19.8237 1.12511C19.7132 0.865517 19.5288 0.644152 19.2934 0.488555C19.0581 0.332959 18.7821 0.25 18.5 0.25C18.2179 0.25 17.9419 0.332959 17.7066 0.488555C17.4712 0.644152 17.2868 0.865517 17.1763 1.12511L15.3412 5.47261L10.5725 5.84761C10.2902 5.86803 10.0205 5.9721 9.79763 6.14653C9.57479 6.32097 9.40898 6.55785 9.32139 6.82695C9.23379 7.09605 9.22837 7.38514 9.30583 7.65733C9.38328 7.92952 9.5401 8.17245 9.75625 8.35511L13.3812 11.4151L12.2737 15.9889C12.208 16.2614 12.2244 16.5473 12.3209 16.8104C12.4175 17.0736 12.5898 17.3023 12.8162 17.4676C13.0455 17.6364 13.3196 17.7333 13.604 17.7463C13.8884 17.7592 14.1702 17.6874 14.4137 17.5401L18.5 15.0826L22.5863 17.5414C22.8296 17.6886 23.1112 17.7602 23.3954 17.7473C23.6795 17.7344 23.9535 17.6375 24.1825 17.4689C24.4092 17.3038 24.5817 17.0751 24.6783 16.8119C24.7749 16.5486 24.7911 16.2626 24.725 15.9901L23.625 11.4164L27.25 8.35636C27.4649 8.17462 27.6207 7.93292 27.6975 7.66216C27.7744 7.3914 27.7687 7.10388 27.6812 6.83636ZM22.2962 10.5701C22.1889 10.6594 22.1086 10.777 22.0644 10.9095C22.0202 11.042 22.0139 11.1842 22.0462 11.3201L23.2225 16.1776L18.8875 13.5651C18.7707 13.4948 18.637 13.4576 18.5006 13.4576C18.3643 13.4576 18.2305 13.4948 18.1138 13.5651L13.7737 16.1764L14.95 11.3189C14.9823 11.183 14.976 11.0408 14.9318 10.9082C14.8877 10.7757 14.8074 10.6582 14.7 10.5689L10.8675 7.33136L15.9137 6.93261C16.0509 6.92187 16.1824 6.87363 16.294 6.79316C16.4055 6.7127 16.4928 6.6031 16.5462 6.47636L18.5 1.85136L20.4538 6.47636C20.5072 6.6031 20.5945 6.7127 20.706 6.79316C20.8176 6.87363 20.9491 6.92187 21.0863 6.93261L26.1325 7.33136L22.2962 10.5701ZM8.83625 13.2239L1.53 20.5301C1.38782 20.6626 1.19978 20.7347 1.00548 20.7313C0.811175 20.7279 0.62579 20.6491 0.488377 20.5117C0.350964 20.3743 0.272252 20.1889 0.268824 19.9946C0.265396 19.8003 0.337519 19.6123 0.469999 19.4701L7.77625 12.1639C7.91842 12.0314 8.10647 11.9593 8.30077 11.9627C8.49507 11.9661 8.68046 12.0448 8.81787 12.1822C8.95528 12.3197 9.034 12.505 9.03742 12.6993C9.04085 12.8936 8.96873 13.0817 8.83625 13.2239ZM10.1887 19.8114C10.2585 19.881 10.3138 19.9637 10.3515 20.0548C10.3893 20.1458 10.4087 20.2434 10.4087 20.342C10.4087 20.4405 10.3893 20.5381 10.3515 20.6292C10.3138 20.7202 10.2585 20.803 10.1887 20.8726L3.53 27.5301C3.38782 27.6626 3.19978 27.7347 3.00548 27.7313C2.81118 27.7279 2.62579 27.6491 2.48838 27.5117C2.35096 27.3743 2.27225 27.1889 2.26882 26.9946C2.2654 26.8003 2.33752 26.6123 2.47 26.4701L9.125 19.8114C9.1947 19.7413 9.27757 19.6856 9.36885 19.6477C9.46013 19.6097 9.55801 19.5901 9.65687 19.5901C9.75573 19.5901 9.85362 19.6097 9.9449 19.6477C10.0362 19.6856 10.119 19.7413 10.1887 19.8114ZM19.3137 19.6864C19.4542 19.827 19.5331 20.0176 19.5331 20.2164C19.5331 20.4151 19.4542 20.6057 19.3137 20.7464L12.5275 27.5314C12.3853 27.6638 12.1973 27.736 12.003 27.7325C11.8087 27.7291 11.6233 27.6504 11.4859 27.513C11.3485 27.3756 11.2698 27.1902 11.2663 26.9959C11.2629 26.8016 11.335 26.6135 11.4675 26.4714L18.25 19.6851C18.3197 19.6146 18.4028 19.5587 18.4943 19.5205C18.5858 19.4823 18.684 19.4626 18.7831 19.4626C18.8823 19.4626 18.9805 19.4823 19.072 19.5205C19.1635 19.5587 19.2465 19.6146 19.3162 19.6851L19.3137 19.6864Z" fill="#F59E0B"/>
</svg>
